<?xml version="1.0" encoding="UTF-8" standalone="no"?><!DOCTYPE svg PUBLIC "-//W3C//DTD SVG 1.1//EN" "http://www.w3.org/Graphics/SVG/1.1/DTD/svg11.dtd"><svg width="100%" height="100%" viewBox="0 0 288 138" version="1.1" xmlns="http://www.w3.org/2000/svg" xmlns:xlink="http://www.w3.org/1999/xlink" xml:space="preserve" xmlns:serif="http://www.serif.com/" style="fill-rule:evenodd;clip-rule:evenodd;stroke-linejoin:round;stroke-miterlimit:2;"><g id="g12"><path id="path652" d="M264.844,19.203l5.745,0c2.822,0 3.114,1.547 3.114,2.917c0,0.547 0.099,3.094 0.391,4.099l2.922,-0l-0,-0.365c-0.782,-0.364 -0.782,-0.729 -0.881,-1.64l-0.093,-2.917c-0.198,-2.37 -1.073,-2.735 -2.146,-3.099c1.172,-0.636 2.437,-1.547 2.437,-3.917c0,-3.458 -2.823,-4.463 -5.744,-4.463l-8.079,-0l0,16.401l2.334,-0l-0,-7.016Zm-0,-7.474l5.937,0c1.172,0 3.115,0.188 3.115,2.735c-0,2.369 -1.849,2.828 -3.5,2.828l-5.552,-0l-0,-5.563" style="fill:#cfc9ca;"/><path d="M268.734,0.386c-10.372,-0 -18.755,7.913 -18.755,17.631c-0,9.712 8.383,17.63 18.755,17.63c10.389,0 18.765,-7.918 18.765,-17.63c0,-9.718 -8.376,-17.631 -18.765,-17.631Zm-0,2.278c9.089,0 16.487,6.85 16.487,15.353c-0,8.497 -7.398,15.352 -16.487,15.352c-9.074,-0 -16.476,-6.855 -16.476,-15.352c-0,-8.502 7.402,-15.353 16.476,-15.353Z" style="fill:#cfc9ca;"/><path id="path3540" d="M43.906,22.76l-34.896,86.068l25.261,0l6.25,-14.974l35.937,0l6.901,14.974l25.651,0l-38.802,-86.068l-26.302,0Zm13.151,24.349l12.24,29.558l-23.177,-0l10.937,-29.558Z" style="fill:#f2f2f2;fill-rule:nonzero;"/><path id="path4328" d="M83.327,22.76l47.493,106.332l49.056,-106.332l-25.944,0l-23.112,52.084l-21.875,-52.084l-25.618,0Z" style="fill:#f2f2f2;fill-rule:nonzero;"/><path id="path2890" d="M192.083,22.76l-38.151,86.068l25.912,0l13.769,-30.892l5.925,0l8.17,30.892l26.563,0l-11.979,-33.984c-0,-0 27.097,-3.974 27.864,-27.735c-0.874,-25.386 -24.349,-24.349 -24.349,-24.349l-33.724,0Zm17.188,16.537l9.245,-0c-0,-0 7.291,0.879 7.291,7.812c0,6.934 -4.817,11.849 -14.453,12.761l-11.312,-0l9.229,-20.573Z" style="fill:#f2f2f2;fill-rule:nonzero;"/></g></svg>