<?xml version="1.0" encoding="UTF-8" standalone="no"?><!DOCTYPE svg PUBLIC "-//W3C//DTD SVG 1.1//EN" "http://www.w3.org/Graphics/SVG/1.1/DTD/svg11.dtd"><svg width="100%" height="100%" viewBox="0 0 625 625" version="1.1" xmlns="http://www.w3.org/2000/svg" xmlns:xlink="http://www.w3.org/1999/xlink" xml:space="preserve" xmlns:serif="http://www.serif.com/" style="fill-rule:evenodd;clip-rule:evenodd;stroke-linejoin:round;stroke-miterlimit:2;"><path d="M511.308,386.263c22,-2.68 70.517,-8.446 79.155,2.679c8.633,10.921 -9.663,56.871 -17.888,77.266c-2.467,6.184 2.879,8.654 8.429,3.917c36.184,-30.496 45.642,-94.167 38.242,-103.438c-7.404,-9.062 -70.929,-16.895 -109.583,10.305c-5.963,4.325 -4.934,10.096 1.645,9.271Z" style="fill:#f90;fill-rule:nonzero;"/><path d="M311.883,497.733c84.5,0 182.771,-26.583 250.413,-76.65c11.1,-8.241 1.437,-20.808 -9.871,-15.658c-75.863,32.142 -158.304,47.804 -233.346,47.804c-111.225,0 -218.75,-30.7 -305.917,-81.387c-7.612,-4.534 -13.366,3.296 -6.995,9.066c80.595,72.938 187.295,116.825 305.716,116.825Z" style="fill:#f90;fill-rule:nonzero;"/><path d="M177.633,261.813c0,7.625 0.821,13.804 2.259,18.337c1.827,5.099 4.028,10.057 6.583,14.833c1.025,1.65 1.438,3.3 1.438,4.742c-0,2.063 -1.234,4.125 -3.909,6.183l-12.95,8.655c-1.85,1.233 -3.704,1.854 -5.346,1.854c-2.058,-0 -4.112,-1.034 -6.166,-2.888c-2.772,-2.984 -5.252,-6.226 -7.404,-9.683c-2.299,-3.96 -4.426,-8.016 -6.376,-12.158c-16.033,18.958 -36.183,28.437 -60.441,28.437c-17.271,0 -31.042,-4.946 -41.117,-14.833c-10.075,-9.892 -15.217,-23.084 -15.217,-39.563c0,-17.516 6.167,-31.733 18.709,-42.446c12.541,-10.716 29.196,-16.07 50.375,-16.07c6.987,-0 14.183,0.616 21.792,1.645c7.604,1.034 15.416,2.68 23.641,4.534l0,-15.042c0,-15.658 -3.291,-26.579 -9.667,-32.967c-6.575,-6.387 -17.679,-9.475 -33.508,-9.475c-7.196,0 -14.596,0.821 -22.204,2.675c-7.559,1.806 -14.979,4.148 -22.204,7.009c-2.338,1.048 -4.742,1.943 -7.196,2.679c-1.438,0.408 -2.467,0.617 -3.292,0.617c-2.875,-0 -4.316,-2.059 -4.316,-6.388l-0,-10.096c-0,-3.296 0.416,-5.771 1.441,-7.208c1.025,-1.446 2.875,-2.888 5.755,-4.333c7.195,-3.709 15.833,-6.796 25.904,-9.271c10.075,-2.675 20.771,-3.917 32.075,-3.917c24.466,0 42.35,5.567 53.862,16.692c11.309,11.125 17.067,28.025 17.067,50.687l-0,66.759l0.412,-0Zm-83.47,31.32c6.783,0 13.775,-1.237 21.175,-3.708c7.4,-2.475 13.979,-7.008 19.529,-13.187c3.291,-3.917 5.758,-8.242 6.991,-13.188c1.234,-4.946 2.054,-10.921 2.054,-17.925l0,-8.654c-6.233,-1.52 -12.547,-2.688 -18.912,-3.5c-6.409,-0.818 -12.864,-1.232 -19.325,-1.242c-13.775,0 -23.85,2.679 -30.633,8.242c-6.784,5.567 -10.075,13.396 -10.075,23.696c-0,9.683 2.466,16.896 7.608,21.841c4.933,5.15 12.129,7.625 21.583,7.625l0.004,0Zm165.088,22.25c-3.7,0 -6.167,-0.616 -7.813,-2.058c-1.641,-1.237 -3.083,-4.125 -4.316,-8.037l-48.313,-159.271c-1.233,-4.125 -1.85,-6.8 -1.85,-8.242c0,-3.296 1.642,-5.15 4.934,-5.15l20.145,0c3.909,0 6.584,0.617 8.021,2.058c1.646,1.238 2.875,4.125 4.113,8.038l34.541,136.4l32.071,-136.4c1.025,-4.125 2.259,-6.8 3.904,-8.038c1.646,-1.237 4.521,-2.058 8.225,-2.058l16.446,0c3.909,0 6.579,0.617 8.225,2.058c1.646,1.238 3.084,4.125 3.904,8.038l32.484,138.05l35.571,-138.05c1.229,-4.125 2.666,-6.8 4.108,-8.038c1.646,-1.237 4.317,-2.058 8.021,-2.058l19.116,0c3.292,0 5.142,1.646 5.142,5.15c0,1.029 -0.204,2.058 -0.412,3.296c-0.322,1.757 -0.803,3.481 -1.438,5.15l-49.546,159.279c-1.237,4.121 -2.675,6.796 -4.321,8.033c-1.641,1.238 -4.316,2.063 -7.812,2.063l-17.679,-0c-3.909,-0 -6.583,-0.621 -8.225,-2.063c-1.642,-1.441 -3.083,-4.12 -3.904,-8.241l-31.867,-132.896l-31.662,132.692c-1.03,4.12 -2.263,6.8 -3.909,8.241c-1.642,1.442 -4.521,2.059 -8.221,2.059l-17.683,-0l0,-0.005Zm264.188,5.567c-10.692,0 -21.384,-1.237 -31.663,-3.708c-10.279,-2.475 -18.296,-5.154 -23.642,-8.246c-3.291,-1.854 -5.55,-3.917 -6.375,-5.767c-0.799,-1.819 -1.219,-3.783 -1.233,-5.771l0,-10.508c0,-4.325 1.646,-6.387 4.729,-6.387c1.234,-0 2.467,0.208 3.7,0.616c1.234,0.417 3.084,1.238 5.142,2.063c7.261,3.199 14.843,5.616 22.617,7.208c8.22,1.65 16.241,2.475 24.462,2.475c12.954,0 23.029,-2.267 30.017,-6.8c6.991,-4.533 10.691,-11.125 10.691,-19.575c0,-5.767 -1.85,-10.504 -5.55,-14.421c-3.7,-3.916 -10.691,-7.416 -20.766,-10.712l-29.809,-9.275c-15.008,-4.738 -26.112,-11.742 -32.896,-21.017c-6.783,-9.067 -10.279,-19.162 -10.279,-29.875c0,-8.654 1.85,-16.279 5.55,-22.871c3.7,-6.591 8.634,-12.362 14.804,-16.896c6.167,-4.737 13.155,-8.241 21.38,-10.712c8.225,-2.475 16.858,-3.504 25.904,-3.504c4.525,-0 9.254,0.208 13.775,0.825c4.729,0.616 9.046,1.441 13.362,2.266c4.113,1.03 8.021,2.059 11.721,3.292c3.7,1.242 6.579,2.475 8.633,3.713c2.88,1.65 4.938,3.295 6.171,5.15c1.234,1.65 1.85,3.916 1.85,6.8l0,9.687c0,4.329 -1.646,6.596 -4.729,6.596c-1.646,-0 -4.317,-0.825 -7.812,-2.475c-11.721,-5.354 -24.88,-8.034 -39.475,-8.034c-11.717,0 -20.971,1.855 -27.342,5.767c-6.375,3.917 -9.663,9.892 -9.663,18.342c0,5.767 2.055,10.708 6.167,14.625c4.113,3.917 11.717,7.833 22.613,11.333l29.195,9.275c14.805,4.738 25.492,11.333 31.867,19.779c6.375,8.446 9.458,18.129 9.458,28.846c0,8.858 -1.85,16.896 -5.345,23.9c-3.7,7.004 -8.634,13.188 -15.009,18.134c-6.375,5.149 -13.979,8.858 -22.821,11.537c-9.25,2.883 -18.916,4.329 -29.399,4.329l-0,-0.004Z" style="fill:#fff;fill-rule:nonzero;"/></svg>