<?xml version="1.0" encoding="UTF-8" standalone="no"?><!DOCTYPE svg PUBLIC "-//W3C//DTD SVG 1.1//EN" "http://www.w3.org/Graphics/SVG/1.1/DTD/svg11.dtd"><svg width="100%" height="100%" viewBox="0 0 4267 4267" version="1.1" xmlns="http://www.w3.org/2000/svg" xmlns:xlink="http://www.w3.org/1999/xlink" xml:space="preserve" xmlns:serif="http://www.serif.com/" style="fill-rule:evenodd;clip-rule:evenodd;stroke-linejoin:round;stroke-miterlimit:2;"><g><path d="M1966.67,444.167c-7.917,0.833 -33.334,3.75 -56.25,5.833c-325.834,34.167 -646.667,172.083 -908.334,391.25c-48.333,40 -158.333,150 -198.333,198.333c-216.667,258.75 -343.333,549.167 -390,892.917c-10.417,76.25 -10.417,333.75 -0,410c46.667,343.75 173.333,634.167 390,892.917c40,48.333 150,158.333 198.333,198.333c258.75,216.667 549.167,343.333 892.917,390c76.25,10.417 333.75,10.417 410,0c343.75,-46.667 634.167,-173.333 892.917,-390c48.333,-40 158.333,-150 198.333,-198.333c216.667,-258.75 343.333,-549.167 390,-892.917c10.417,-76.25 10.417,-333.75 0,-410c-46.667,-343.75 -173.333,-634.167 -390,-892.917c-40,-48.333 -150,-158.333 -198.333,-198.333c-257.917,-215.833 -551.25,-344.167 -890.417,-389.583c-36.667,-5 -90,-7.084 -188.75,-7.917c-75.417,-0.833 -144.167,-0.417 -152.083,0.417Zm20.833,180c0,48.75 3.333,154.583 7.917,255c2.5,49.166 5.416,119.583 6.666,156.25c4.584,130 18.334,471.25 20.417,501.666l2.083,30.417l-18.75,-2.083c-10.416,-0.834 -20,-3.334 -21.666,-4.584c-1.25,-1.666 -4.167,-30.416 -5.834,-64.166c-7.5,-148.334 -32.083,-723.75 -34.583,-807.917l-2.5,-92.5l11.667,-1.667c6.25,-0.833 16.666,-2.083 23.333,-2.5l11.25,-0.416l0,32.5Zm398.75,-10c0.417,0.416 1.667,126.25 2.917,279.583c1.666,153.75 3.75,291.667 5,306.667c1.25,15.416 0.833,28.75 -1.25,29.583c-1.667,1.25 -12.084,1.25 -22.5,-0l-19.167,-1.667l-2.917,-121.25c-1.666,-67.083 -3.75,-141.25 -4.583,-165.416c-3.333,-73.75 -6.25,-324.167 -3.75,-330.417c1.667,-4.583 6.25,-5 23.75,-2.083c12.083,2.5 22.083,4.583 22.5,5Zm-963.75,139.583c2.5,3.75 22.083,233.333 46.25,533.75c7.917,102.083 15.833,195.417 17.083,207.083c2.084,21.25 1.667,22.084 -11.666,30.417c-7.5,4.583 -15,8.333 -16.667,8.333c-1.25,0 -3.75,-10.833 -5,-24.166c-5.833,-54.167 -28.333,-315.834 -44.167,-505c-9.166,-111.25 -17.5,-210.834 -18.75,-221.667c-2.083,-18.333 -1.666,-20 9.167,-25.833c13.333,-7.084 20.833,-8.334 23.75,-2.917Zm1147.08,83.75c11.667,4.167 12.917,6.25 15.417,30c4.167,41.667 2.917,240.833 -1.667,240.833c-12.083,0 -37.083,-14.166 -39.166,-22.083c-1.25,-5 -2.5,-64.167 -2.5,-131.25c-0,-135.417 -1.667,-127.5 27.916,-117.5Zm-769.583,19.583c-0,11.25 2.917,73.334 6.25,138.75c3.333,65.417 7.083,148.334 8.75,184.167c2.917,72.5 3.75,70 -24.167,71.667c-13.75,0.416 -13.75,0.416 -14.583,-20.417c-0.833,-11.667 -2.917,-47.917 -5.417,-81.25c-2.083,-33.333 -7.083,-105.417 -10.416,-160.417c-3.334,-55 -7.5,-109.583 -8.75,-121.25c-2.5,-20.833 -2.084,-21.666 9.166,-25.833c6.667,-2.5 18.334,-4.583 25.834,-4.583c13.333,-0.417 13.333,-0.417 13.333,19.166Zm1155.83,57.084l14.167,5.833l2.917,55.833c1.25,30.417 2.083,96.25 1.25,145.834l-1.25,90.833l-17.5,-8.75l-17.5,-8.333l-1.25,-138.334c-0.834,-76.25 -0.417,-140.833 0.416,-143.75c1.667,-6.25 1.667,-6.25 18.75,0.834Zm-760.833,54.583c2.5,2.5 8.333,204.583 8.75,307.083l0.417,61.667l-19.584,-2.917c-11.25,-1.25 -20.416,-2.5 -20.833,-2.916c-1.25,-0.834 -13.75,-309.584 -13.75,-339.584l0,-30.833l21.25,2.5c12.083,1.667 22.5,3.75 23.75,5Zm959.583,29.583c5,5.834 5.834,97.084 7.084,600.417c1.25,577.917 1.25,592.917 -6.25,592.917c-4.584,-0 -10.834,-2.5 -14.584,-5.417c-6.25,-4.583 -7.083,-55 -9.166,-548.75c-1.667,-299.167 -3.75,-570.833 -5,-603.75l-2.5,-60l12.083,8.75c7.083,5 15,12.083 18.333,15.833Zm-373.75,85.417c2.084,1.667 4.167,25.417 4.584,52.5c2.083,92.083 2.5,656.667 0.416,658.333c-0.833,0.834 -8.333,-1.25 -16.666,-4.583l-15,-6.25l-0,-708.75l11.666,2.5c6.25,1.667 12.917,4.167 15,6.25Zm-1150,23.333c1.25,11.25 3.334,36.667 4.584,57.5c1.25,20.417 4.166,67.084 6.666,103.334c5,73.333 4.167,77.916 -19.583,77.916c-12.5,0 -14.167,-1.25 -15.833,-13.75c-4.167,-24.583 -18.75,-229.583 -16.667,-232.916c2.083,-2.917 23.75,-10.417 33.75,-11.25c2.5,-0.417 5.833,8.333 7.083,19.166Zm-689.166,106.25c4.583,44.167 13.75,136.667 20.416,205.417c7.084,68.75 12.917,127.083 12.917,129.583c-0,5 -32.083,20.834 -35.417,17.5c-2.083,-2.083 -43.75,-370.833 -43.75,-387.5c0,-10 32.084,-52.083 36.25,-47.5c1.25,0.834 5.417,37.917 9.584,82.5Zm1633.75,43.75l12.083,7.084l0.417,90c0.416,49.166 1.25,104.166 1.25,122.083c0.833,37.5 -3.75,43.75 -26.25,35.833l-12.917,-4.583l0,-35.833c0,-20 -1.25,-77.917 -2.917,-129.167l-2.5,-92.5l9.584,-0c5,-0 14.583,3.333 21.25,7.083Zm-1450.83,161.667c7.5,80 19.584,215 27.5,300l14.167,154.167l-16.25,16.25l-15.833,16.25l-2.917,-32.917c-1.667,-18.333 -10,-103.333 -18.75,-189.167c-8.75,-85.833 -21.25,-210.416 -27.5,-276.666l-11.667,-120l16.25,-15c14.584,-13.75 16.25,-14.167 19.167,-6.667c1.667,4.167 8.75,73.333 15.833,153.75Zm-312.083,50.417c9.167,82.083 33.333,300.416 54.167,485c20.833,184.583 40.416,362.5 44.166,395.833c3.334,33.333 9.167,83.75 12.5,112.5c5.834,48.75 5.834,52.083 -0.833,57.083c-10,7.5 -14.167,6.667 -14.167,-2.083c0,-3.75 -3.75,-35.417 -8.333,-69.583c-7.5,-57.084 -20,-153.75 -47.917,-370.834c-5.833,-43.75 -17.083,-130.833 -25,-193.75c-8.333,-62.916 -20.416,-156.666 -27.083,-208.333c-6.667,-51.667 -17.917,-140 -25,-197.083c-7.5,-56.667 -12.083,-107.084 -10.833,-112.5c2.916,-11.25 27.5,-50.417 30,-47.917c0.833,1.25 9.166,69.167 18.333,151.667Zm-127.5,179.583c6.25,50 17.917,141.25 25.833,203.333c7.917,61.667 17.917,138.75 22.5,170.834l7.917,58.333l-8.75,7.5c-5,4.167 -10,5.833 -11.667,4.167c-1.666,-1.667 -5,-18.334 -7.5,-36.667c-2.5,-18.333 -17.916,-125.417 -34.583,-237.5l-29.583,-204.167l9.583,-28.333c5,-15.417 10.417,-27.917 11.667,-27.917c1.666,0 7.916,40.834 14.583,90.417Zm2287.5,-54.583c5.833,5.833 6.667,31.666 6.667,222.916l-0,216.25l-11.667,0c-25.417,0 -25,6.25 -26.667,-230.416l-1.25,-215.417l13.334,-0c7.083,-0 16.25,2.917 19.583,6.667Zm-912.083,74.583c94.166,14.167 176.25,40.417 257.5,82.083c52.5,27.084 77.5,45.834 135.833,101.667c86.667,82.917 140,155.417 190,257.917c72.917,149.166 101.25,281.25 137.083,635.416c16.25,158.75 37.5,446.667 42.084,564.584c1.25,34.166 4.166,90.416 6.666,125c4.584,73.333 10,63.333 -54.583,94.583c-89.583,43.333 -175.833,73.333 -289.583,101.25c-139.167,34.167 -229.167,45 -366.667,45.417l-100,0.416l0.833,-47.916c0,-26.25 2.5,-87.5 5,-135.417c12.5,-232.083 10,-525 -6.25,-687.5c-9.166,-93.333 -27.083,-206.667 -37.083,-231.667c-2.083,-5.416 7.5,-10 48.75,-24.166c75.417,-26.25 140.833,-59.167 150.833,-75.417c17.917,-30.833 -14.166,-75 -55,-75c-7.083,-0 -28.333,7.5 -47.916,16.25c-93.334,42.917 -280.417,93.333 -388.334,104.583c-74.583,7.917 -190.416,3.334 -270.833,-11.25c-43.75,-7.916 -122.083,-37.5 -187.5,-71.25c-75.417,-39.166 -121.667,-91.25 -135.417,-152.916c-7.5,-33.334 -5.416,-100 4.167,-137.5c10.417,-41.25 39.583,-101.25 66.25,-136.25c118.75,-156.25 363.75,-291.667 615,-339.167c80,-15 193.333,-16.667 279.167,-3.75Zm1285.42,12.917c15,6.25 16.667,7.916 16.667,22.083c0.833,113.75 -1.667,373.75 -3.75,384.583c-0.417,3.75 -22.083,4.167 -31.25,0.834c-5.833,-2.084 -6.667,-24.584 -6.667,-208.334c0,-131.666 1.667,-205.833 4.167,-205.833c2.083,-0 11.667,2.917 20.833,6.667Zm182.084,228.75l15,6.25l-2.917,345c-3.333,439.583 -3.75,452.5 -19.583,490.416c-25.834,62.084 -24.584,74.584 -22.084,-197.916c0.834,-136.25 2.917,-274.167 3.75,-306.25c0.834,-32.084 1.667,-122.5 2.084,-201.25c-0,-95 1.25,-142.5 4.166,-142.5c2.5,-0 11.25,2.916 19.584,6.25Zm-2505.83,103.75c2.5,33.75 1.667,37.083 -10.416,63.75l-13.334,28.333l-5,-41.667c-7.916,-66.666 -7.916,-69.583 7.917,-79.583c7.083,-5 14.583,-8.333 15.833,-7.5c1.25,0.833 3.75,17.5 5,36.667Zm-257.5,251.25c3.75,34.166 32.917,260.833 47.917,372.083c22.5,172.083 24.167,196.667 14.167,186.25c-1.25,-1.25 -10.834,-59.167 -20.834,-128.75c-65,-449.167 -64.583,-446.25 -59.166,-449.583c11.25,-7.5 15,-3.334 17.916,20Zm300,190.833c2.5,10.417 14.584,123.333 14.584,137.083c-0,11.667 -15,22.5 -21.667,15.834c-2.083,-2.084 -7.5,-37.5 -11.667,-78.334c-4.583,-41.25 -9.166,-84.166 -10.416,-95.416l-2.5,-20.834l14.583,16.667c8.333,9.167 15.833,20.417 17.083,25Zm336.25,157.083c4.584,4.167 7.5,20.834 11.25,65.834c6.25,81.25 7.084,75 -10,75c-17.5,-0 -17.083,1.25 -22.916,-72.084c-5.834,-74.583 -5.834,-73.75 5.416,-73.75c5.417,0 12.5,2.5 16.25,5Zm330,6.25c0.834,4.167 2.917,29.167 4.584,55.417c1.25,26.25 5,85.417 8.333,131.25c11.667,168.333 12.083,189.583 5,189.583c-7.917,0 -8.75,-6.25 -17.917,-125c-3.333,-49.166 -9.583,-126.666 -13.75,-172.083c-3.75,-45.417 -6.25,-83.333 -5,-84.167c4.584,-5 16.667,-1.25 18.75,5Zm-783.333,80c2.5,3.75 18.333,137.084 37.917,319.167c5.833,55 11.666,107.917 12.916,117.917l2.084,17.916l-10.417,-6.666c-7.917,-5.417 -10.833,-10.834 -10.833,-20.417c-0,-26.25 -17.917,-199.167 -31.667,-305c-7.917,-60 -14.167,-112.917 -14.167,-117.917c0,-8.75 10,-12.083 14.167,-5Zm2404.58,174.167l-2.916,174.167l-10.417,15.416c-23.75,35 -22.5,41.667 -21.25,-153.333l0.833,-178.75l15.417,-15.833c8.333,-8.334 16.667,-15.417 18.333,-15.417c1.25,-0 1.25,78.333 0,173.75Zm-385.416,276.25c2.083,242.083 1.666,260.833 -5,268.333c-4.167,4.584 -7.917,7.5 -9.167,6.25c-2.917,-3.333 -7.083,-531.25 -3.75,-534.166c1.667,-1.667 5.833,-2.5 9.583,-2.084c5.417,1.25 6.667,30.834 8.334,261.667Zm-1360.83,-165.833c2.917,25.833 13.334,149.583 17.5,207.916c2.5,39.167 2.5,40.417 -6.666,43.334c-5,1.666 -10.834,1.25 -12.5,-0.834c-2.917,-2.916 -12.084,-95.416 -23.334,-237.916l-2.916,-34.167l12.916,-0c12.084,-0 12.917,0.833 15,21.667Zm-327.5,145.833c2.917,2.917 5,13.333 5,23.75c0,10.833 5,67.083 10.417,125.417c15.833,159.583 17.083,181.25 10,177.083c-10.833,-6.25 -20.417,-15.833 -18.333,-18.333c0.833,-1.667 -0.834,-22.5 -4.167,-46.25c-2.917,-24.167 -6.667,-63.334 -8.333,-87.5c-1.667,-24.167 -5.417,-68.334 -8.75,-97.917c-7.917,-72.917 -7.5,-81.25 1.666,-81.25c4.167,-0 9.584,2.083 12.5,5Zm197.084,280.417c1.25,9.166 3.75,43.333 5.416,75.833c2.917,62.5 1.667,67.083 -15.416,54.167c-5,-3.75 -8.334,-19.584 -13.334,-67.084c-8.75,-85.833 -9.166,-82.5 7.084,-80.833c12.083,1.25 13.75,2.917 16.25,17.917Z" style="fill:#fff;fill-rule:nonzero;"/><path d="M1326.67,1868.33c-43.334,18.75 -46.667,77.5 -5.834,98.334c29.584,15 59.584,7.916 75,-17.917c29.167,-47.5 -18.333,-102.5 -69.166,-80.417Z" style="fill:#fff;fill-rule:nonzero;"/><path d="M1609.17,1908.33c-40,24.584 -40,83.75 -0,108.334c39.583,23.75 90.833,-7.5 90.833,-55c0,-45.834 -52.5,-76.667 -90.833,-53.334Z" style="fill:#fff;fill-rule:nonzero;"/></g></svg>