<?xml version="1.0" encoding="UTF-8" standalone="no"?><!DOCTYPE svg PUBLIC "-//W3C//DTD SVG 1.1//EN" "http://www.w3.org/Graphics/SVG/1.1/DTD/svg11.dtd"><svg width="100%" height="100%" viewBox="0 0 1155 1064" version="1.1" xmlns="http://www.w3.org/2000/svg" xmlns:xlink="http://www.w3.org/1999/xlink" xml:space="preserve" xmlns:serif="http://www.serif.com/" style="fill-rule:evenodd;clip-rule:evenodd;stroke-linejoin:round;stroke-miterlimit:2;"><g><path d="M577.16,1063.31l212.54,-654.132l-425.081,0l212.541,654.132Z" style="fill:#e24329;"/><path d="M577.16,1063.31l-212.541,-654.128l-297.872,0l510.413,654.128Z" style="fill:#fc6d26;"/><path d="M66.747,409.181l-64.59,198.785c-5.891,18.131 0.562,37.994 15.987,49.197l559.016,406.147l-510.413,-654.129Z" style="fill:#fca326;"/><path d="M66.747,409.182l297.872,0l-128.012,-393.978c-6.588,-20.272 -35.266,-20.272 -41.85,-0l-128.01,393.978Z" style="fill:#e24329;"/><path d="M577.16,1063.31l212.54,-654.128l297.872,0l-510.412,654.128Z" style="fill:#fc6d26;"/><path d="M1087.57,409.181l64.59,198.785c5.891,18.131 -0.562,37.994 -15.987,49.197l-559.016,406.147l510.413,-654.129Z" style="fill:#fca326;"/><path d="M1087.57,409.182l-297.872,0l128.012,-393.978c6.588,-20.272 35.266,-20.272 41.85,-0l128.01,393.978Z" style="fill:#e24329;"/></g></svg>