<?xml version="1.0" encoding="UTF-8" standalone="no"?><!DOCTYPE svg PUBLIC "-//W3C//DTD SVG 1.1//EN" "http://www.w3.org/Graphics/SVG/1.1/DTD/svg11.dtd"><svg width="100%" height="100%" viewBox="0 0 2134 2134" version="1.1" xmlns="http://www.w3.org/2000/svg" xmlns:xlink="http://www.w3.org/1999/xlink" xml:space="preserve" xmlns:serif="http://www.serif.com/" style="fill-rule:evenodd;clip-rule:evenodd;stroke-linejoin:round;stroke-miterlimit:2;"><g><path d="M1064.25,945.732c-83.305,-0 -143.369,54.329 -143.369,135.823c-0,81.494 67.61,135.824 150.915,135.824c50.33,-0 94.699,-19.921 122.165,-53.5l-57.725,-33.352c-15.242,16.676 -38.407,26.41 -64.44,26.41c-36.144,0 -66.856,-18.864 -78.25,-49.047l211.432,0c1.66,-8.451 2.641,-17.204 2.641,-26.41c0,-81.419 -60.064,-135.748 -143.369,-135.748Zm-71.383,109.413c9.432,-30.107 35.239,-49.047 71.308,-49.047c36.144,-0 61.95,18.94 71.307,49.047l-142.615,0Zm883.909,-109.413c-83.305,-0 -143.369,54.329 -143.369,135.823c-0,81.494 67.61,135.824 150.915,135.824c50.33,-0 94.699,-19.921 122.165,-53.5l-57.725,-33.352c-15.242,16.676 -38.407,26.41 -64.44,26.41c-36.144,0 -66.856,-18.864 -78.25,-49.047l211.432,0c1.66,-8.451 2.641,-17.204 2.641,-26.41c0,-81.419 -60.064,-135.748 -143.369,-135.748Zm-71.307,109.413c9.432,-30.107 35.238,-49.047 71.307,-49.047c36.144,-0 61.951,18.94 71.307,49.047l-142.614,0Zm-294.511,26.41c0,45.275 29.58,75.458 75.458,75.458c31.088,-0 54.404,-14.111 66.402,-37.125l57.952,33.427c-23.996,39.993 -68.969,64.064 -124.354,64.064c-83.381,-0 -143.37,-54.33 -143.37,-135.824c0,-81.494 60.065,-135.823 143.37,-135.823c55.385,-0 100.283,24.071 124.354,64.063l-57.952,33.428c-11.998,-23.015 -35.314,-37.125 -66.402,-37.125c-45.803,-0 -75.458,30.183 -75.458,75.457Zm622.373,-218.826l0,347.104l-67.911,0l-0,-347.104l67.911,-0Zm-1854.52,-37.729l278.816,482.928l-557.631,-0l278.815,-482.928Zm697.076,37.729l-209.092,362.196l-209.093,-362.196l78.4,-0l130.693,226.372l130.692,-226.372l78.4,-0Zm444.52,90.549l0,73.118c-7.546,-2.188 -15.544,-3.697 -24.146,-3.697c-43.841,-0 -75.458,30.183 -75.458,75.457l0,111.677l-67.911,0l-0,-256.555l67.911,-0l0,69.421c0,-38.333 44.596,-69.421 99.604,-69.421Z" style="fill:#fff;fill-rule:nonzero;"/></g></svg>